<svg xmlns="http://www.w3.org/2000/svg" width="242" height="242" fill="none"><path d="M158.11 141.085c-.907 3.766-2.197 7.392-3.697 10.949a79.138 79.138 0 0 1-13.355 21.306c-6.765 7.742-14.716 13.984-23.887 18.656-6.625 3.383-13.599 5.789-20.887 7.253-2.686.524-5.44.907-8.16 1.151a76.533 76.533 0 0 1-10.95.244 81.545 81.545 0 0 1-12.658-1.604c-7.183-1.499-14.053-3.975-20.574-7.358-5.753-2.998-11.019-6.66-15.866-10.949-6.73-5.928-12.31-12.798-16.703-20.609-4.359-7.602-7.323-15.692-8.962-24.305a82.847 82.847 0 0 1-1.255-10.182 77.582 77.582 0 0 1-.07-8.543c.453-9.067 2.336-17.854 5.789-26.293 3.487-8.543 8.299-16.285 14.471-23.154 11.507-12.728 25.63-21.027 42.368-24.759 3.662-.802 7.358-1.36 11.09-1.604 2.37-.174 4.742-.313 7.113-.279 16.11.35 30.895 4.952 44.216 14.088 3.487 2.371 6.73 5.056 9.799 7.95 8.09 7.707 14.262 16.704 18.621 26.99 1.534 3.627 2.755 7.324 3.731 11.125.07.244.14.488.105.767-.314.139-.628.07-.942.07h-37.033c-.662 0-1.011-.175-1.325-.768a41.798 41.798 0 0 0-7.741-10.67c-5.335-5.335-11.647-9.067-18.97-11.089-2.86-.802-5.754-1.255-8.718-1.43-11.402-.662-21.515 2.65-30.233 9.904-7.741 6.416-12.518 14.68-14.576 24.514-.802 3.836-1.011 7.706-.697 11.612.732 9.31 4.115 17.575 10.217 24.654 6.556 7.601 14.82 12.379 24.689 14.262 3.661.697 7.392.906 11.088.627 9.8-.767 18.377-4.463 25.666-11.054 3.661-3.278 6.625-7.113 8.961-11.472.07-.105.14-.175.21-.279.313.314.732.174 1.081.174 12.623.105 25.316.105 38.044.105Z" fill="#DE1B55"/><path d="M122.751 129.961h-20.644c-.209 0-.418.035-.593 0-.418-.035-.662.105-.872.523a18.166 18.166 0 0 1-2.824 4.394c-3.766 4.463-8.543 7.148-14.402 7.811-6.59.732-12.414-1.151-17.33-5.579-3.801-3.418-6.138-7.707-6.905-12.763-1.011-6.835.767-12.937 5.405-18.133 3.243-3.627 7.288-5.928 12.065-6.835 6.556-1.255 12.484.21 17.784 4.289 2.58 1.988 4.603 4.499 6.033 7.428.279.593.628.732 1.255.732h81.773c.592 0 1.011-.174 1.429-.593 4.603-4.533 9.206-9.031 13.809-13.564.802-.802 1.709-1.186 2.86-1.186h36.161c.558 0 1.116.035 1.604.279 1.848.837 2.092 3.278.872 4.463-1.081 1.047-2.162 2.093-3.243 3.174a843.775 843.775 0 0 0-5.649 5.579c-2.964 2.894-5.894 5.858-8.927 8.718-1.291 1.22-1.36 3.243 0 4.533 5.893 5.684 11.716 11.438 17.575 17.191.662.628 1.046 1.36 1.011 2.302-.07 1.395-1.046 2.476-2.441 2.65-.279.035-.593.035-.872.035h-36.091c-1.186 0-2.093-.384-2.929-1.221-3.767-3.731-7.533-7.427-11.299-11.123-.837-.837-1.743-1.639-2.545-2.476-.384-.384-.767-.523-1.29-.523h-59.909c-.313-.14-.592-.105-.871-.105Z" fill="#DE1B55"/><path d="M122.751 129.961h37.521c-.244 1.534-.454 3.104-.733 4.638-.383 2.197-.802 4.394-1.429 6.521h-38.149c-.349 0-.767.139-1.081-.175.628-1.394 1.325-2.754 1.883-4.184a43.527 43.527 0 0 0 1.918-6.172c.035-.244.035-.419.07-.628Z" fill="#9E1A41"/></svg>
